<?xml version="1.0" encoding="utf-8"?>
<!-- Generator: Adobe Illustrator 19.0.0, SVG Export Plug-In . SVG Version: 6.00 Build 0)  -->
<svg version="1.1" id="Layer_1" xmlns="http://www.w3.org/2000/svg" xmlns:xlink="http://www.w3.org/1999/xlink" x="0px" y="0px"
	 viewBox="0 12.5 100 50" style="enable-background:new 0 0 100 100;" xml:space="preserve">
<style type="text/css">
	.st0{fill:#0B3B5D;}
	.st1{fill:#2DABE2;}
</style>
<g id="XMLID_2_">
	<g id="XMLID_10_">
		<g id="XMLID_39_">
			<path id="XMLID_71_" class="st0" d="M27.3,49.6l0.3-0.4c0.2,0.2,0.4,0.3,0.7,0.3c0.2,0,0.3-0.1,0.3-0.2l0,0
				c0-0.1-0.1-0.2-0.5-0.3c-0.5-0.1-0.8-0.3-0.8-0.7l0,0c0-0.4,0.3-0.7,0.8-0.7c0.3,0,0.7,0.1,0.9,0.3l-0.3,0.4
				c-0.2-0.2-0.4-0.2-0.6-0.2s-0.3,0.1-0.3,0.2l0,0c0,0.2,0.1,0.2,0.5,0.3c0.5,0.1,0.8,0.3,0.8,0.7l0,0c0,0.5-0.4,0.7-0.9,0.7
				C27.9,50,27.6,49.8,27.3,49.6z"/>
			<path id="XMLID_68_" class="st0" d="M31.3,47.5h0.5l1,2.4h-0.6L32,49.4h-1l-0.2,0.5h-0.5L31.3,47.5z M31.8,48.9l-0.3-0.8
				l-0.3,0.8H31.8z"/>
			<path id="XMLID_66_" class="st0" d="M34.3,48h-0.7v-0.5h2V48h-0.7v1.9h-0.5L34.3,48L34.3,48z"/>
			<path id="XMLID_64_" class="st0" d="M36.9,47.5h1.8V48h-1.3v0.5h1.1V49h-1.1v0.5h1.3v0.5h-1.8V47.5z"/>
			<path id="XMLID_62_" class="st0" d="M40.1,47.5h0.5v1.9h1.2v0.5h-1.7V47.5z"/>
			<path id="XMLID_60_" class="st0" d="M43.1,47.5h0.5v1.9h1.2v0.5h-1.7V47.5z"/>
			<path id="XMLID_58_" class="st0" d="M46.1,47.5h0.5v2.4h-0.5V47.5z"/>
			<path id="XMLID_56_" class="st0" d="M48.7,48h-0.7v-0.5h2V48h-0.7v1.9h-0.5L48.7,48L48.7,48z"/>
			<path id="XMLID_54_" class="st0" d="M51.3,47.5h1.8V48h-1.3v0.5h1.1V49h-1.1v0.5h1.3v0.5h-1.8V47.5z"/>
			<path id="XMLID_51_" class="st0" d="M56.4,47.5h1.1c0.3,0,0.6,0.1,0.7,0.2c0.1,0.1,0.2,0.3,0.2,0.6l0,0c0,0.4-0.2,0.6-0.5,0.7
				l0.6,0.8h-0.6l-0.5-0.8l0,0h-0.4v0.8h-0.5L56.4,47.5L56.4,47.5z M57.4,48.7c0.3,0,0.4-0.1,0.4-0.3l0,0c0-0.2-0.2-0.3-0.4-0.3
				h-0.5v0.7H57.4z"/>
			<path id="XMLID_48_" class="st0" d="M60.6,47.5H61l1,2.4h-0.6l-0.2-0.5h-1l-0.2,0.5h-0.5L60.6,47.5z M61.1,48.9l-0.3-0.8
				l-0.3,0.8H61.1z"/>
			<path id="XMLID_45_" class="st0" d="M63.3,47.5h0.9c0.8,0,1.3,0.5,1.3,1.2l0,0c0,0.7-0.5,1.2-1.3,1.2h-0.9V47.5z M64.2,49.5
				c0.4,0,0.7-0.3,0.7-0.7l0,0c0-0.4-0.3-0.7-0.7-0.7h-0.4v1.5L64.2,49.5L64.2,49.5z"/>
			<path id="XMLID_43_" class="st0" d="M66.9,47.5h0.5v2.4h-0.5V47.5z"/>
			<path id="XMLID_40_" class="st0" d="M68.8,48.8L68.8,48.8c0-0.7,0.5-1.2,1.3-1.2c0.7,0,1.3,0.6,1.3,1.2l0,0
				c0,0.7-0.5,1.2-1.3,1.2C69.4,50,68.8,49.4,68.8,48.8z M70.8,48.8L70.8,48.8c0-0.4-0.3-0.8-0.7-0.8c-0.4,0-0.7,0.3-0.7,0.7l0,0
				c0,0.4,0.3,0.8,0.7,0.8C70.5,49.5,70.8,49.2,70.8,48.8z"/>
		</g>
		<g id="XMLID_30_">
			<g id="XMLID_35_">
				<path id="XMLID_38_" class="st1" d="M87.4,33.3L87.4,33.3c1.3,2,2.1,4.3,2.1,6.7s-0.7,4.7-2.1,6.7c-0.2,0.3-0.2,0.8,0.2,1.1
					s0.8,0.2,1.1-0.2c1.5-2.2,2.4-4.9,2.4-7.6c0-2.7-0.8-5.3-2.3-7.6c-0.2-0.3-0.7-0.4-1.1-0.2C87.3,32.5,87.2,33,87.4,33.3"/>
				<path id="XMLID_37_" class="st1" d="M85,45.7L85,45.7c0.3,0.3,0.8,0.2,1.1-0.2c1.2-1.6,1.8-3.5,1.8-5.5c0-2-0.6-3.9-1.9-5.5
					c-0.3-0.3-0.7-0.4-1.1-0.2c-0.3,0.3-0.4,0.7-0.2,1.1l0,0c1,1.3,1.6,2.9,1.6,4.6c0,1.7-0.5,3.3-1.5,4.6
					C84.6,45,84.6,45.4,85,45.7"/>
				<path id="XMLID_36_" class="st1" d="M82.3,43.8L82.3,43.8c0.3,0.3,0.8,0.2,1.1-0.1c0.8-1.1,1.3-2.4,1.3-3.7s-0.4-2.6-1.3-3.7
					c-0.3-0.3-0.7-0.4-1.1-0.1c-0.3,0.3-0.4,0.7-0.1,1.1l0,0c0.6,0.8,1,1.7,1,2.7c0,1-0.3,2-1,2.8l0,0
					C81.9,43.1,81.9,43.6,82.3,43.8"/>
			</g>
			<g id="XMLID_31_">
				<path id="XMLID_34_" class="st1" d="M11.3,46.7c-1.4-2-2.1-4.3-2.1-6.7s0.7-4.7,2.1-6.7c0.2-0.3,0.2-0.8-0.2-1.1
					c-0.3-0.2-0.8-0.2-1.1,0.2c-1.5,2.2-2.4,4.9-2.4,7.6c0,2.7,0.8,5.3,2.4,7.6l0,0c0.2,0.3,0.7,0.4,1.1,0.2
					C11.4,47.5,11.5,47.1,11.3,46.7C11.3,46.7,11.5,47.1,11.3,46.7C11.3,46.7,11.5,47.1,11.3,46.7L11.3,46.7z"/>
				<path id="XMLID_33_" class="st1" d="M13.8,35.4c0.3-0.3,0.2-0.8-0.1-1.1c-0.3-0.3-0.8-0.2-1.1,0.2l0,0c-1.2,1.6-1.9,3.5-1.9,5.5
					c0,2,0.6,3.9,1.8,5.5c0.3,0.3,0.7,0.4,1.1,0.2c0.3-0.3,0.4-0.7,0.2-1.1c-1-1.3-1.5-2.9-1.5-4.6C12.3,38.4,12.8,36.7,13.8,35.4
					L13.8,35.4L13.8,35.4L13.8,35.4L13.8,35.4z"/>
				<path id="XMLID_32_" class="st1" d="M14,40c0,1.3,0.5,2.7,1.3,3.7c0.3,0.3,0.7,0.4,1.1,0.1c0.3-0.3,0.4-0.7,0.1-1.1
					c-0.6-0.8-1-1.7-1-2.8c0-1,0.3-2,1-2.7l0,0c0.3-0.3,0.2-0.8-0.1-1.1c-0.3-0.3-0.8-0.2-1.1,0.1C14.4,37.4,14,38.6,14,40
					C14,40,14,38.6,14,40C14,40,14,38.6,14,40L14,40z"/>
			</g>
		</g>
		<g id="XMLID_11_">
			<path id="XMLID_28_" class="st0" d="M21.3,41.7c0,0.3,0.1,0.6,0.4,0.8c0.2,0.2,0.5,0.3,0.8,0.3c0.5,0,1.1-0.2,1.1-0.8
				c0-1.4-5.4-0.3-5.4-3.7c0-2.2,2.3-2.9,4.2-2.9c1.9,0,4.2,0.4,4.4,2.8h-3.2c0-0.3-0.2-0.5-0.3-0.6c-0.2-0.2-0.4-0.2-0.7-0.2
				c-0.6,0-1,0.2-1,0.6c0,1.2,5.5,0.4,5.5,3.7c0,1.8-1.5,3.1-4.7,3.1c-2,0-4.2-0.6-4.4-3L21.3,41.7L21.3,41.7z"/>
			<path id="XMLID_25_" class="st0" d="M27.7,35.4h2.8v1.3h-2.8V35.4z M27.7,44.5v-7.1h2.8v7.1H27.7z"/>
			<path id="XMLID_23_" class="st0" d="M31.3,37.3h2.6v1.5h0c0.4-1.1,1.1-1.6,2.2-1.6c0.1,0,0.2,0,0.4,0.1V40
				c-0.2,0-0.4-0.1-0.6-0.1c-1.2,0-1.7,0.6-1.7,2.1v2.5h-2.8L31.3,37.3L31.3,37.3z"/>
			<path id="XMLID_20_" class="st0" d="M37.1,35.4h2.8v1.3h-2.8V35.4z M37.1,44.5v-7.1h2.8v7.1H37.1z"/>
			<path id="XMLID_18_" class="st0" d="M48.4,44.5h-2.6v-1.1c-0.7,1-1.4,1.2-2.6,1.2c-1.6,0-2.6-1-2.6-3v-4.3h2.8v3.9
				c0,1,0.3,1.3,1,1.3c0.8,0,1.1-0.6,1.1-1.7v-3.4h2.8V44.5z"/>
			<path id="XMLID_16_" class="st0" d="M51.4,42.2c0,0.3,0.1,0.5,0.3,0.7c0.2,0.1,0.4,0.2,0.7,0.2c0.4,0,0.9-0.1,0.9-0.6
				c0-1.1-4.4-0.2-4.4-3c0-1.8,1.9-2.4,3.4-2.4c1.6,0,3.4,0.3,3.5,2.2h-2.6c0-0.2-0.1-0.4-0.3-0.5c-0.2-0.1-0.3-0.2-0.6-0.2
				c-0.5,0-0.8,0.2-0.8,0.5c0,1,4.5,0.3,4.5,3c0,1.5-1.2,2.5-3.8,2.5c-1.6,0-3.4-0.5-3.6-2.4L51.4,42.2L51.4,42.2z"/>
			<path id="XMLID_14_" class="st0" d="M58.9,39.8L56,35.6h3.9l1.1,2.2l1.2-2.2h3.8l-3,4.2l3,4.6h-3.9l-1.2-2.5l-1.3,2.5h-3.9
				L58.9,39.8z"/>
			<path id="XMLID_12_" class="st0" d="M66.2,35.6h3.2v1.3c0.4-0.7,1.2-1.6,2.5-1.6c1.5,0,2.3,0.7,2.7,1.6c0.8-1.1,1.4-1.6,2.7-1.6
				c2.2,0,3.3,1.5,3.3,3.8v5.2h-3.5v-4.5c0-1.3-0.1-1.8-1-1.8c-1,0-1,0.9-1,2v4.3h-3.5v-4.5c0-1.3-0.1-1.8-1-1.8c-1,0-1,0.9-1,2v4.3
				h-3.5L66.2,35.6L66.2,35.6z"/>
		</g>
	</g>
	<g id="XMLID_3_">
		<path id="XMLID_7_" class="st0" d="M80.5,34c-0.5,0-1,0.4-1,0.9l0,0c0,0.5,0.4,0.9,0.9,0.9c0.5,0,1-0.4,1-0.9l0,0
			C81.4,34.5,81,34,80.5,34z M80.5,35.8c-0.4,0-0.8-0.3-0.8-0.8l0,0c0-0.4,0.3-0.8,0.8-0.8c0.4,0,0.8,0.3,0.8,0.8l0,0
			C81.3,35.4,81,35.8,80.5,35.8z"/>
		<path id="XMLID_4_" class="st0" d="M80.9,34.8L80.9,34.8c0-0.1,0-0.2-0.1-0.2c-0.1-0.1-0.2-0.1-0.3-0.1h-0.4v1h0.2v-0.3h0.2l0,0
			l0.2,0.3H81L80.7,35C80.8,35,80.9,34.9,80.9,34.8z M80.6,34.9h-0.2v-0.3h0.2c0.1,0,0.2,0.1,0.2,0.2l0,0
			C80.8,34.9,80.7,34.9,80.6,34.9z"/>
	</g>
</g>
</svg>
